<svg width="113" height="113" viewBox="0 0 113 113" fill="none" xmlns="http://www.w3.org/2000/svg">
<path d="M74.5813 25.445C83.7483 26.475 90.8553 32.552 90.8553 43.161C90.8553 58.611 79.4223 67.366 67.4743 68.705C63.8693 69.117 61.1913 69.22 57.0713 69.22H46.6683L41.9303 96H27.7163L40.2823 24.93H64.3843C68.4013 24.93 71.0793 25.033 74.5813 25.445ZM65.2083 57.684C71.1823 56.757 75.8173 52.74 75.8173 44.809C75.8173 39.659 73.0363 37.084 69.0193 36.466C67.4743 36.26 65.2083 36.157 62.7363 36.157H52.4363L48.6253 57.993H58.9253C61.3973 57.993 63.4573 57.89 65.2083 57.684Z" fill="black"/>
<path d="M24.6587 103.173C12.8677 95.1291 4.55828 82.9205 1.40025 69.0007C-1.75778 55.0809 0.469675 40.4817 7.63496 28.137C14.8003 15.7923 26.3723 6.61707 40.0256 2.45517C53.6788 -1.70674 68.4014 -0.546827 81.2344 5.70179C94.0675 11.9504 104.06 22.8246 109.204 36.1391C114.347 49.4536 114.261 64.2215 108.962 77.4749C103.664 90.7284 93.5447 101.485 80.6396 107.584C67.7344 113.682 52.9993 114.67 39.3956 110.349L40.5642 106.67C53.2385 110.696 66.9669 109.775 78.9904 104.094C91.0139 98.4119 100.441 88.39 105.378 76.042C110.315 63.6939 110.395 49.935 105.603 37.5301C100.811 25.1253 91.501 14.994 79.5446 9.17224C67.5883 3.35051 53.8716 2.26984 41.1511 6.14741C28.4306 10.025 17.6491 18.5734 10.9733 30.0747C4.29757 41.5761 2.22229 55.1779 5.16457 68.1467C8.10685 81.1155 15.8486 92.49 26.834 99.9845L24.6587 103.173Z" fill="white"/>
</svg>
